<?xml version="1.0" standalone="no"?>
<!DOCTYPE svg PUBLIC "-//W3C//DTD SVG 20010904//EN"
 "http://www.w3.org/TR/2001/REC-SVG-20010904/DTD/svg10.dtd">
<svg version="1.0" xmlns="http://www.w3.org/2000/svg"
 width="512.000000pt" height="512.000000pt" viewBox="0 0 512.000000 512.000000"
 preserveAspectRatio="xMidYMid meet">
<metadata>
Created by potrace 1.14, written by Peter Selinger 2001-2017
</metadata>
<g transform="translate(0.000000,512.000000) scale(0.100000,-0.100000)"
fill="#000000" stroke="none">
<path d="M1925 4344 c-330 -117 -649 -231 -710 -253 -60 -21 -226 -80 -368
-130 -142 -50 -266 -97 -276 -103 -10 -6 -26 -24 -35 -39 -14 -25 -16 -142
-16 -1259 0 -1219 0 -1233 20 -1265 22 -35 22 -35 372 -159 87 -31 229 -81
315 -112 87 -30 194 -68 238 -84 44 -16 188 -67 320 -114 132 -46 350 -124
485 -171 134 -48 258 -89 275 -92 21 -3 98 20 260 77 127 45 273 97 325 115
52 18 178 63 280 100 102 36 190 67 195 69 6 2 17 6 25 9 14 6 214 76 705 249
149 52 208 77 230 99 l30 29 3 1240 c3 1386 8 1281 -70 1318 -24 11 -149 57
-278 102 -129 46 -284 100 -345 122 -60 21 -172 60 -247 86 l-137 47 -83 -28
c-46 -15 -90 -27 -97 -27 -13 0 -287 93 -326 111 -11 5 -90 33 -175 63 l-155
53 -6 45 c-4 25 -13 54 -20 65 -18 31 -63 53 -101 52 -18 -1 -303 -97 -633
-215z"/>
</g>
</svg>
